<svg xmlns="http://www.w3.org/2000/svg" width="1200" height="420" viewBox="0 0 1200 420" role="img" aria-labelledby="title desc">
  <title id="title">multipass</title>
  <desc id="desc">ISOLATION</desc>
  <defs>
    <radialGradient id="bg" cx="0.32" cy="0.42" r="0.95" gradientUnits="userSpaceOnUse">
      <stop offset="0" stop-color="#15101F"/>
      <stop offset="0.55" stop-color="#0C0F16"/>
      <stop offset="1" stop-color="#0B0E11"/>
    </radialGradient>
    <linearGradient id="acc" x1="0" y1="0" x2="1" y2="0">
      <stop offset="0" stop-color="#7C5CFF"/>
      <stop offset="1" stop-color="#9B7BFF"/>
    </linearGradient>
    <linearGradient id="panel" x1="0" y1="0" x2="0" y2="1">
      <stop offset="0" stop-color="#161B26"/>
      <stop offset="1" stop-color="#10131B"/>
    </linearGradient>
  </defs>
  <rect width="1200" height="420" fill="url(#bg)"/>
  <rect x="598" y="56" width="1" height="312" fill="#222838"/>
  <text x="64" y="74" font-family="-apple-system,BlinkMacSystemFont,Segoe UI,sans-serif" font-size="12" letter-spacing="3" fill="#7C5CFF">ISOLATION</text>
  <text x="62" y="128" font-family="-apple-system,BlinkMacSystemFont,Segoe UI,sans-serif" font-size="50" font-weight="700" fill="#F4F6FB">multipass</text>
  <rect x="64" y="146" width="52" height="4" rx="2" fill="url(#acc)"/>
<text x="64" y="176" font-family="-apple-system,BlinkMacSystemFont,Segoe UI,sans-serif" font-size="17" fill="#C7CEDB">Tasks needing tools</text>
<text x="64" y="204" font-family="-apple-system,BlinkMacSystemFont,Segoe UI,sans-serif" font-size="17" fill="#C7CEDB">the agent lacks — isolated,</text>
<text x="64" y="232" font-family="-apple-system,BlinkMacSystemFont,Segoe UI,sans-serif" font-size="17" fill="#C7CEDB">autonomous, fire-and-forget</text>
<circle cx="760" cy="210" r="120" fill="none" stroke="#7C5CFF" stroke-width="2" stroke-dasharray="8 8" opacity="0.6"/><rect x="700" y="160" width="120" height="100" rx="14" fill="url(#panel)" stroke="#2A3350"/><text x="760" y="218" text-anchor="middle" font-family="-apple-system,BlinkMacSystemFont,Segoe UI,sans-serif" font-size="14" fill="#C7CEDB">task</text><rect x="940" y="110" width="160" height="48" rx="10" fill="#0E111A" stroke="#2A3350"/><circle cx="966" cy="134" r="8" fill="#7C5CFF"/><text x="986" y="139" font-family="-apple-system,BlinkMacSystemFont,Segoe UI,sans-serif" font-size="14" fill="#C7CEDB">tool</text>
<rect x="940" y="180" width="160" height="48" rx="10" fill="#0E111A" stroke="#2A3350"/><circle cx="966" cy="204" r="8" fill="#7C5CFF"/><text x="986" y="209" font-family="-apple-system,BlinkMacSystemFont,Segoe UI,sans-serif" font-size="14" fill="#C7CEDB">web</text>
<rect x="940" y="250" width="160" height="48" rx="10" fill="#0E111A" stroke="#2A3350"/><circle cx="966" cy="274" r="8" fill="#7C5CFF"/><text x="986" y="279" font-family="-apple-system,BlinkMacSystemFont,Segoe UI,sans-serif" font-size="14" fill="#C7CEDB">mcp</text>

</svg>